<?xml version="1.0" standalone="no"?>
<!DOCTYPE svg PUBLIC "-//W3C//DTD SVG 20010904//EN"
 "http://www.w3.org/TR/2001/REC-SVG-20010904/DTD/svg10.dtd">
<svg version="1.0" xmlns="http://www.w3.org/2000/svg"
 width="402.000000pt" height="500.000000pt" viewBox="0 0 402.000000 500.000000"
 preserveAspectRatio="xMidYMid meet">

<g transform="translate(0.000000,500.000000) scale(0.100000,-0.100000)"
fill="#fff" stroke="none">
<path d="M901 4129 c-37 -11 -120 -89 -147 -140 -18 -33 -19 -93 -19 -1569 0
-844 3 -1547 7 -1562 14 -47 97 -138 147 -160 57 -26 168 -27 224 -3 63 26
120 93 143 166 18 62 19 108 19 1564 0 1224 -2 1507 -13 1538 -21 59 -84 131
-136 155 -50 24 -161 29 -225 11z"/>
<path d="M2105 4131 c-34 -4 -65 -16 -91 -36 -88 -64 -124 -136 -124 -243 1
-105 46 -184 136 -237 52 -31 157 -44 349 -45 165 0 262 -38 368 -143 72 -71
113 -128 148 -207 22 -51 24 -68 24 -210 0 -143 -2 -159 -25 -210 -35 -79 -62
-116 -138 -193 -122 -124 -223 -156 -489 -157 -120 0 -151 -3 -194 -21 -63
-24 -115 -67 -148 -122 -35 -57 -42 -185 -13 -250 21 -48 97 -137 116 -137 6
0 28 -9 49 -20 36 -19 52 -21 245 -17 279 4 367 22 553 111 155 73 353 261
449 426 107 183 153 361 153 595 0 264 -61 459 -215 682 -30 45 -127 147 -188
198 -144 123 -275 187 -467 229 -74 16 -387 21 -498 7z"/>
</g>
</svg>
